# 当前OBJ文件由成睿软件生成;

#
# object Box12
#
v -59.6500 66.4500 0.6000
v -59.6500 -67.0500 0.6000
v -59.6500 66.4500 1.1000
v -59.6500 -67.0500 1.1000
v 61.3500 66.4500 1.1000
v 61.3500 -67.0500 0.6000
v 61.3500 66.4500 0.6000
v 61.3500 -67.0500 1.1000
o Box12
g Box12
usemtl wire_184228153
vn -1.0000 0.0000 0.0000
vn -1.0000 0.0000 0.0000
vn 1.0000 0.0000 0.0000
vn 1.0000 0.0000 0.0000
vn 0.0000 0.0000 1.0000
vn 0.0000 0.0000 1.0000
vn 0.0000 0.0000 -1.0000
vn 0.0000 0.0000 -1.0000
vn 0.0000 -1.0000 0.0000
vn 0.0000 -1.0000 0.0000
vn 0.0000 1.0000 0.0000
vn 0.0000 1.0000 0.0000
f 1//1 2//1 3//1
f 2//2 4//2 3//2
f 5//3 6//3 7//3
f 5//4 8//4 6//4
f 4//5 8//5 5//5
f 3//6 4//6 5//6
f 7//7 6//7 2//7
f 7//8 2//8 1//8
f 4//9 2//9 6//9
f 8//10 4//10 6//10
f 7//11 1//11 3//11
f 7//12 3//12 5//12

#
# object Box16
#
v -133.8500 66.4500 0.6000
v -133.8500 -67.0500 0.6000
v -133.8500 66.4500 1.1000
v -133.8500 -67.0500 1.1000
v -60.1500 66.4500 1.1000
v -60.1500 -67.0500 0.6000
v -60.1500 66.4500 0.6000
v -60.1500 -67.0500 1.1000
o Box16
g Box16
usemtl wire_184228153
vn -1.0000 0.0000 0.0000
vn -1.0000 0.0000 0.0000
vn 1.0000 0.0000 0.0000
vn 1.0000 0.0000 0.0000
vn 0.0000 0.0000 1.0000
vn 0.0000 0.0000 1.0000
vn 0.0000 0.0000 -1.0000
vn 0.0000 0.0000 -1.0000
vn 0.0000 -1.0000 0.0000
vn 0.0000 -1.0000 0.0000
vn 0.0000 1.0000 0.0000
vn 0.0000 1.0000 0.0000
f 9//13 10//13 11//13
f 10//14 12//14 11//14
f 13//15 14//15 15//15
f 13//16 16//16 14//16
f 12//17 16//17 13//17
f 11//18 12//18 13//18
f 15//19 14//19 10//19
f 15//20 10//20 9//20
f 12//21 10//21 14//21
f 16//22 12//22 14//22
f 15//23 9//23 11//23
f 15//24 11//24 13//24

#
# object Box14
#
v 61.8500 66.4500 0.6000
v 61.8500 -67.0500 0.6000
v 61.8500 66.4500 1.1000
v 61.8500 -67.0500 1.1000
v 135.5500 66.4500 1.1000
v 135.5500 -67.0500 0.6000
v 135.5500 66.4500 0.6000
v 135.5500 -67.0500 1.1000
o Box14
g Box14
usemtl wire_184228153
vn -1.0000 0.0000 0.0000
vn -1.0000 0.0000 0.0000
vn 1.0000 0.0000 0.0000
vn 1.0000 0.0000 0.0000
vn 0.0000 0.0000 1.0000
vn 0.0000 0.0000 1.0000
vn 0.0000 0.0000 -1.0000
vn 0.0000 0.0000 -1.0000
vn 0.0000 -1.0000 0.0000
vn 0.0000 -1.0000 0.0000
vn 0.0000 1.0000 0.0000
vn 0.0000 1.0000 0.0000
f 17//25 18//25 19//25
f 18//26 20//26 19//26
f 21//27 22//27 23//27
f 21//28 24//28 22//28
f 20//29 24//29 21//29
f 19//30 20//30 21//30
f 23//31 22//31 18//31
f 23//32 18//32 17//32
f 20//33 18//33 22//33
f 24//34 20//34 22//34
f 23//35 17//35 19//35
f 23//36 19//36 21//36

#
# object Box1
#
v -134.9500 67.5500 -1.1000
v -134.9500 -66.4500 -1.1000
v -134.9500 67.5500 28.9000
v -134.9500 -66.4500 28.9000
v -133.2500 67.5500 28.9000
v -133.2500 -66.4500 -1.1000
v -133.2500 67.5500 -1.1000
v -133.2500 -66.4500 28.9000
o Box1
g Box1
usemtl wire_184228153
vn -1.0000 0.0000 0.0000
vn -1.0000 0.0000 0.0000
vn 1.0000 0.0000 0.0000
vn 1.0000 0.0000 0.0000
vn 0.0000 0.0000 1.0000
vn 0.0000 0.0000 1.0000
vn 0.0000 0.0000 -1.0000
vn 0.0000 0.0000 -1.0000
vn 0.0000 -1.0000 0.0000
vn 0.0000 -1.0000 0.0000
vn 0.0000 1.0000 0.0000
vn 0.0000 1.0000 0.0000
f 25//37 26//37 27//37
f 26//38 28//38 27//38
f 29//39 30//39 31//39
f 29//40 32//40 30//40
f 28//41 32//41 29//41
f 27//42 28//42 29//42
f 31//43 30//43 26//43
f 31//44 26//44 25//44
f 28//45 26//45 30//45
f 32//46 28//46 30//46
f 31//47 25//47 27//47
f 31//48 27//48 29//48

#
# object Box17
#
v -133.2500 -58.4500 -1.1000
v -133.2500 -66.4500 -1.1000
v -133.2500 -58.4500 0.6000
v -133.2500 -66.4500 0.6000
v -60.7500 -58.4500 0.6000
v -60.7500 -66.4500 -1.1000
v -60.7500 -58.4500 -1.1000
v -60.7500 -66.4500 0.6000
o Box17
g Box17
usemtl wire_184228153
vn -1.0000 0.0000 0.0000
vn -1.0000 0.0000 0.0000
vn 1.0000 0.0000 0.0000
vn 1.0000 0.0000 0.0000
vn 0.0000 0.0000 1.0000
vn 0.0000 0.0000 1.0000
vn 0.0000 0.0000 -1.0000
vn 0.0000 0.0000 -1.0000
vn 0.0000 -1.0000 0.0000
vn 0.0000 -1.0000 0.0000
vn 0.0000 1.0000 0.0000
vn 0.0000 1.0000 0.0000
f 33//49 34//49 35//49
f 34//50 36//50 35//50
f 37//51 38//51 39//51
f 37//52 40//52 38//52
f 36//53 40//53 37//53
f 35//54 36//54 37//54
f 39//55 38//55 34//55
f 39//56 34//56 33//56
f 36//57 34//57 38//57
f 40//58 36//58 38//58
f 39//59 33//59 35//59
f 39//60 35//60 37//60

#
# object Box4
#
v -60.7500 65.8500 -1.1000
v -60.7500 -66.4500 -1.1000
v -60.7500 65.8500 28.9000
v -60.7500 -66.4500 28.9000
v -59.0500 65.8500 28.9000
v -59.0500 -66.4500 -1.1000
v -59.0500 65.8500 -1.1000
v -59.0500 -66.4500 28.9000
o Box4
g Box4
usemtl wire_184228153
vn -1.0000 0.0000 0.0000
vn -1.0000 0.0000 0.0000
vn 1.0000 0.0000 0.0000
vn 1.0000 0.0000 0.0000
vn 0.0000 0.0000 1.0000
vn 0.0000 0.0000 1.0000
vn 0.0000 0.0000 -1.0000
vn 0.0000 0.0000 -1.0000
vn 0.0000 -1.0000 0.0000
vn 0.0000 -1.0000 0.0000
vn 0.0000 1.0000 0.0000
vn 0.0000 1.0000 0.0000
f 41//61 42//61 43//61
f 42//62 44//62 43//62
f 45//63 46//63 47//63
f 45//64 48//64 46//64
f 44//65 48//65 45//65
f 43//66 44//66 45//66
f 47//67 46//67 42//67
f 47//68 42//68 41//68
f 44//69 42//69 46//69
f 48//70 44//70 46//70
f 47//71 41//71 43//71
f 47//72 43//72 45//72

#
# object Box13
#
v -59.0500 -58.4500 -1.1000
v -59.0500 -66.4500 -1.1000
v -59.0500 -58.4500 0.6000
v -59.0500 -66.4500 0.6000
v 60.7500 -58.4500 0.6000
v 60.7500 -66.4500 -1.1000
v 60.7500 -58.4500 -1.1000
v 60.7500 -66.4500 0.6000
o Box13
g Box13
usemtl wire_184228153
vn -1.0000 0.0000 0.0000
vn -1.0000 0.0000 0.0000
vn 1.0000 0.0000 0.0000
vn 1.0000 0.0000 0.0000
vn 0.0000 0.0000 1.0000
vn 0.0000 0.0000 1.0000
vn 0.0000 0.0000 -1.0000
vn 0.0000 0.0000 -1.0000
vn 0.0000 -1.0000 0.0000
vn 0.0000 -1.0000 0.0000
vn 0.0000 1.0000 0.0000
vn 0.0000 1.0000 0.0000
f 49//73 50//73 51//73
f 50//74 52//74 51//74
f 53//75 54//75 55//75
f 53//76 56//76 54//76
f 52//77 56//77 53//77
f 51//78 52//78 53//78
f 55//79 54//79 50//79
f 55//80 50//80 49//80
f 52//81 50//81 54//81
f 56//82 52//82 54//82
f 55//83 49//83 51//83
f 55//84 51//84 53//84

#
# object Box15
#
v 62.4500 -58.4500 -1.1000
v 62.4500 -66.4500 -1.1000
v 62.4500 -58.4500 0.6000
v 62.4500 -66.4500 0.6000
v 134.9500 -58.4500 0.6000
v 134.9500 -66.4500 -1.1000
v 134.9500 -58.4500 -1.1000
v 134.9500 -66.4500 0.6000
o Box15
g Box15
usemtl wire_184228153
vn -1.0000 0.0000 0.0000
vn -1.0000 0.0000 0.0000
vn 1.0000 0.0000 0.0000
vn 1.0000 0.0000 0.0000
vn 0.0000 0.0000 1.0000
vn 0.0000 0.0000 1.0000
vn 0.0000 0.0000 -1.0000
vn 0.0000 0.0000 -1.0000
vn 0.0000 -1.0000 0.0000
vn 0.0000 -1.0000 0.0000
vn 0.0000 1.0000 0.0000
vn 0.0000 1.0000 0.0000
f 57//85 58//85 59//85
f 58//86 60//86 59//86
f 61//87 62//87 63//87
f 61//88 64//88 62//88
f 60//89 64//89 61//89
f 59//90 60//90 61//90
f 63//91 62//91 58//91
f 63//92 58//92 57//92
f 60//93 58//93 62//93
f 64//94 60//94 62//94
f 63//95 57//95 59//95
f 63//96 59//96 61//96

#
# object Box2
#
v 134.9500 67.5500 -1.1000
v 134.9500 -66.4500 -1.1000
v 134.9500 67.5500 28.9000
v 134.9500 -66.4500 28.9000
v 136.6500 67.5500 28.9000
v 136.6500 -66.4500 -1.1000
v 136.6500 67.5500 -1.1000
v 136.6500 -66.4500 28.9000
o Box2
g Box2
usemtl wire_184228153
vn -1.0000 0.0000 0.0000
vn -1.0000 0.0000 0.0000
vn 1.0000 0.0000 0.0000
vn 1.0000 0.0000 0.0000
vn 0.0000 0.0000 1.0000
vn 0.0000 0.0000 1.0000
vn 0.0000 0.0000 -1.0000
vn 0.0000 0.0000 -1.0000
vn 0.0000 -1.0000 0.0000
vn 0.0000 -1.0000 0.0000
vn 0.0000 1.0000 0.0000
vn 0.0000 1.0000 0.0000
f 65//97 66//97 67//97
f 66//98 68//98 67//98
f 69//99 70//99 71//99
f 69//100 72//100 70//100
f 68//101 72//101 69//101
f 67//102 68//102 69//102
f 71//103 70//103 66//103
f 71//104 66//104 65//104
f 68//105 66//105 70//105
f 72//106 68//106 70//106
f 71//107 65//107 67//107
f 71//108 67//108 69//108

#
# object Box5
#
v 60.7500 65.8500 -1.1000
v 60.7500 -66.4500 -1.1000
v 60.7500 65.8500 28.9000
v 60.7500 -66.4500 28.9000
v 62.4500 65.8500 28.9000
v 62.4500 -66.4500 -1.1000
v 62.4500 65.8500 -1.1000
v 62.4500 -66.4500 28.9000
o Box5
g Box5
usemtl wire_184228153
vn -1.0000 0.0000 0.0000
vn -1.0000 0.0000 0.0000
vn 1.0000 0.0000 0.0000
vn 1.0000 0.0000 0.0000
vn 0.0000 0.0000 1.0000
vn 0.0000 0.0000 1.0000
vn 0.0000 0.0000 -1.0000
vn 0.0000 0.0000 -1.0000
vn 0.0000 -1.0000 0.0000
vn 0.0000 -1.0000 0.0000
vn 0.0000 1.0000 0.0000
vn 0.0000 1.0000 0.0000
f 73//109 74//109 75//109
f 74//110 76//110 75//110
f 77//111 78//111 79//111
f 77//112 80//112 78//112
f 76//113 80//113 77//113
f 75//114 76//114 77//114
f 79//115 78//115 74//115
f 79//116 74//116 73//116
f 76//117 74//117 78//117
f 80//118 76//118 78//118
f 79//119 73//119 75//119
f 79//120 75//120 77//120

#
# object Box21
#
v 62.4500 -32.9500 1.1000
v 62.4500 -34.6500 1.1000
v 62.4500 -32.9500 28.9000
v 62.4500 -34.6500 28.9000
v 134.9500 -32.9500 28.9000
v 134.9500 -34.6500 1.1000
v 134.9500 -32.9500 1.1000
v 134.9500 -34.6500 28.9000
o Box21
g Box21
usemtl wire_184228153
vn -1.0000 0.0000 0.0000
vn -1.0000 0.0000 0.0000
vn 1.0000 0.0000 0.0000
vn 1.0000 0.0000 0.0000
vn 0.0000 0.0000 1.0000
vn 0.0000 0.0000 1.0000
vn 0.0000 0.0000 -1.0000
vn 0.0000 0.0000 -1.0000
vn 0.0000 -1.0000 0.0000
vn 0.0000 -1.0000 0.0000
vn 0.0000 1.0000 0.0000
vn 0.0000 1.0000 0.0000
f 81//121 82//121 83//121
f 82//122 84//122 83//122
f 85//123 86//123 87//123
f 85//124 88//124 86//124
f 84//125 88//125 85//125
f 83//126 84//126 85//126
f 87//127 86//127 82//127
f 87//128 82//128 81//128
f 84//129 82//129 86//129
f 88//130 84//130 86//130
f 87//131 81//131 83//131
f 87//132 83//132 85//132

#
# object Box18
#
v -133.2500 -32.9500 1.1000
v -133.2500 -34.6500 1.1000
v -133.2500 -32.9500 28.9000
v -133.2500 -34.6500 28.9000
v -60.7500 -32.9500 28.9000
v -60.7500 -34.6500 1.1000
v -60.7500 -32.9500 1.1000
v -60.7500 -34.6500 28.9000
o Box18
g Box18
usemtl wire_184228153
vn -1.0000 0.0000 0.0000
vn -1.0000 0.0000 0.0000
vn 1.0000 0.0000 0.0000
vn 1.0000 0.0000 0.0000
vn 0.0000 0.0000 1.0000
vn 0.0000 0.0000 1.0000
vn 0.0000 0.0000 -1.0000
vn 0.0000 0.0000 -1.0000
vn 0.0000 -1.0000 0.0000
vn 0.0000 -1.0000 0.0000
vn 0.0000 1.0000 0.0000
vn 0.0000 1.0000 0.0000
f 89//133 90//133 91//133
f 90//134 92//134 91//134
f 93//135 94//135 95//135
f 93//136 96//136 94//136
f 92//137 96//137 93//137
f 91//138 92//138 93//138
f 95//139 94//139 90//139
f 95//140 90//140 89//140
f 92//141 90//141 94//141
f 96//142 92//142 94//142
f 95//143 89//143 91//143
f 95//144 91//144 93//144

#
# object Box27
#
v -97.8500 -1.1500 1.1000
v -97.8500 -32.9500 1.1000
v -97.8500 -1.1500 28.9000
v -97.8500 -32.9500 28.9000
v -96.1500 -1.1500 28.9000
v -96.1500 -32.9500 1.1000
v -96.1500 -1.1500 1.1000
v -96.1500 -32.9500 28.9000
o Box27
g Box27
usemtl wire_184228153
vn -1.0000 0.0000 0.0000
vn -1.0000 0.0000 0.0000
vn 1.0000 0.0000 0.0000
vn 1.0000 0.0000 0.0000
vn 0.0000 0.0000 1.0000
vn 0.0000 0.0000 1.0000
vn 0.0000 0.0000 -1.0000
vn 0.0000 0.0000 -1.0000
vn 0.0000 -1.0000 0.0000
vn 0.0000 -1.0000 0.0000
vn 0.0000 1.0000 0.0000
vn 0.0000 1.0000 0.0000
f 97//145 98//145 99//145
f 98//146 100//146 99//146
f 101//147 102//147 103//147
f 101//148 104//148 102//148
f 100//149 104//149 101//149
f 99//150 100//150 101//150
f 103//151 102//151 98//151
f 103//152 98//152 97//152
f 100//153 98//153 102//153
f 104//154 100//154 102//154
f 103//155 97//155 99//155
f 103//156 99//156 101//156

#
# object Box25
#
v 97.8500 -1.1500 1.1000
v 97.8500 -32.9500 1.1000
v 97.8500 -1.1500 28.9000
v 97.8500 -32.9500 28.9000
v 99.5500 -1.1500 28.9000
v 99.5500 -32.9500 1.1000
v 99.5500 -1.1500 1.1000
v 99.5500 -32.9500 28.9000
o Box25
g Box25
usemtl wire_184228153
vn -1.0000 0.0000 0.0000
vn -1.0000 0.0000 0.0000
vn 1.0000 0.0000 0.0000
vn 1.0000 0.0000 0.0000
vn 0.0000 0.0000 1.0000
vn 0.0000 0.0000 1.0000
vn 0.0000 0.0000 -1.0000
vn 0.0000 0.0000 -1.0000
vn 0.0000 -1.0000 0.0000
vn 0.0000 -1.0000 0.0000
vn 0.0000 1.0000 0.0000
vn 0.0000 1.0000 0.0000
f 105//157 106//157 107//157
f 106//158 108//158 107//158
f 109//159 110//159 111//159
f 109//160 112//160 110//160
f 108//161 112//161 109//161
f 107//162 108//162 109//162
f 111//163 110//163 106//163
f 111//164 106//164 105//164
f 108//165 106//165 110//165
f 112//166 108//166 110//166
f 111//167 105//167 107//167
f 111//168 107//168 109//168

#
# object Box7
#
v -59.0500 -16.0500 1.1000
v -59.0500 -17.7500 1.1000
v -59.0500 -16.0500 28.9000
v -59.0500 -17.7500 28.9000
v 60.7500 -16.0500 28.9000
v 60.7500 -17.7500 1.1000
v 60.7500 -16.0500 1.1000
v 60.7500 -17.7500 28.9000
o Box7
g Box7
usemtl wire_184228153
vn -1.0000 0.0000 0.0000
vn -1.0000 0.0000 0.0000
vn 1.0000 0.0000 0.0000
vn 1.0000 0.0000 0.0000
vn 0.0000 0.0000 1.0000
vn 0.0000 0.0000 1.0000
vn 0.0000 0.0000 -1.0000
vn 0.0000 0.0000 -1.0000
vn 0.0000 -1.0000 0.0000
vn 0.0000 -1.0000 0.0000
vn 0.0000 1.0000 0.0000
vn 0.0000 1.0000 0.0000
f 113//169 114//169 115//169
f 114//170 116//170 115//170
f 117//171 118//171 119//171
f 117//172 120//172 118//172
f 116//173 120//173 117//173
f 115//174 116//174 117//174
f 119//175 118//175 114//175
f 119//176 114//176 113//176
f 116//177 114//177 118//177
f 120//178 116//178 118//178
f 119//179 113//179 115//179
f 119//180 115//180 117//180

#
# object Box10
#
v -20.2500 24.0500 1.1000
v -20.2500 -16.0500 1.1000
v -20.2500 24.0500 28.9000
v -20.2500 -16.0500 28.9000
v -18.5500 24.0500 28.9000
v -18.5500 -16.0500 1.1000
v -18.5500 24.0500 1.1000
v -18.5500 -16.0500 28.9000
o Box10
g Box10
usemtl wire_184228153
vn -1.0000 0.0000 0.0000
vn -1.0000 0.0000 0.0000
vn 1.0000 0.0000 0.0000
vn 1.0000 0.0000 0.0000
vn 0.0000 0.0000 1.0000
vn 0.0000 0.0000 1.0000
vn 0.0000 0.0000 -1.0000
vn 0.0000 0.0000 -1.0000
vn 0.0000 -1.0000 0.0000
vn 0.0000 -1.0000 0.0000
vn 0.0000 1.0000 0.0000
vn 0.0000 1.0000 0.0000
f 121//181 122//181 123//181
f 122//182 124//182 123//182
f 125//183 126//183 127//183
f 125//184 128//184 126//184
f 124//185 128//185 125//185
f 123//186 124//186 125//186
f 127//187 126//187 122//187
f 127//188 122//188 121//188
f 124//189 122//189 126//189
f 128//190 124//190 126//190
f 127//191 121//191 123//191
f 127//192 123//192 125//192

#
# object Box11
#
v 20.2500 24.0500 1.1000
v 20.2500 -16.0500 1.1000
v 20.2500 24.0500 28.9000
v 20.2500 -16.0500 28.9000
v 21.9500 24.0500 28.9000
v 21.9500 -16.0500 1.1000
v 21.9500 24.0500 1.1000
v 21.9500 -16.0500 28.9000
o Box11
g Box11
usemtl wire_184228153
vn -1.0000 0.0000 0.0000
vn -1.0000 0.0000 0.0000
vn 1.0000 0.0000 0.0000
vn 1.0000 0.0000 0.0000
vn 0.0000 0.0000 1.0000
vn 0.0000 0.0000 1.0000
vn 0.0000 0.0000 -1.0000
vn 0.0000 0.0000 -1.0000
vn 0.0000 -1.0000 0.0000
vn 0.0000 -1.0000 0.0000
vn 0.0000 1.0000 0.0000
vn 0.0000 1.0000 0.0000
f 129//193 130//193 131//193
f 130//194 132//194 131//194
f 133//195 134//195 135//195
f 133//196 136//196 134//196
f 132//197 136//197 133//197
f 131//198 132//198 133//198
f 135//199 134//199 130//199
f 135//200 130//200 129//200
f 132//201 130//201 134//201
f 136//202 132//202 134//202
f 135//203 129//203 131//203
f 135//204 131//204 133//204

#
# object Box19
#
v -133.2500 0.5500 1.1000
v -133.2500 -1.1500 1.1000
v -133.2500 0.5500 28.9000
v -133.2500 -1.1500 28.9000
v -60.7500 0.5500 28.9000
v -60.7500 -1.1500 1.1000
v -60.7500 0.5500 1.1000
v -60.7500 -1.1500 28.9000
o Box19
g Box19
usemtl wire_184228153
vn -1.0000 0.0000 0.0000
vn -1.0000 0.0000 0.0000
vn 1.0000 0.0000 0.0000
vn 1.0000 0.0000 0.0000
vn 0.0000 0.0000 1.0000
vn 0.0000 0.0000 1.0000
vn 0.0000 0.0000 -1.0000
vn 0.0000 0.0000 -1.0000
vn 0.0000 -1.0000 0.0000
vn 0.0000 -1.0000 0.0000
vn 0.0000 1.0000 0.0000
vn 0.0000 1.0000 0.0000
f 137//205 138//205 139//205
f 138//206 140//206 139//206
f 141//207 142//207 143//207
f 141//208 144//208 142//208
f 140//209 144//209 141//209
f 139//210 140//210 141//210
f 143//211 142//211 138//211
f 143//212 138//212 137//212
f 140//213 138//213 142//213
f 144//214 140//214 142//214
f 143//215 137//215 139//215
f 143//216 139//216 141//216

#
# object Box22
#
v 62.4500 0.5500 1.1000
v 62.4500 -1.1500 1.1000
v 62.4500 0.5500 28.9000
v 62.4500 -1.1500 28.9000
v 134.9500 0.5500 28.9000
v 134.9500 -1.1500 1.1000
v 134.9500 0.5500 1.1000
v 134.9500 -1.1500 28.9000
o Box22
g Box22
usemtl wire_184228153
vn -1.0000 0.0000 0.0000
vn -1.0000 0.0000 0.0000
vn 1.0000 0.0000 0.0000
vn 1.0000 0.0000 0.0000
vn 0.0000 0.0000 1.0000
vn 0.0000 0.0000 1.0000
vn 0.0000 0.0000 -1.0000
vn 0.0000 0.0000 -1.0000
vn 0.0000 -1.0000 0.0000
vn 0.0000 -1.0000 0.0000
vn 0.0000 1.0000 0.0000
vn 0.0000 1.0000 0.0000
f 145//217 146//217 147//217
f 146//218 148//218 147//218
f 149//219 150//219 151//219
f 149//220 152//220 150//220
f 148//221 152//221 149//221
f 147//222 148//222 149//222
f 151//223 150//223 146//223
f 151//224 146//224 145//224
f 148//225 146//225 150//225
f 152//226 148//226 150//226
f 151//227 145//227 147//227
f 151//228 147//228 149//228

#
# object Box6
#
v -59.0500 25.7500 1.1000
v -59.0500 24.0500 1.1000
v -59.0500 25.7500 28.9000
v -59.0500 24.0500 28.9000
v 60.7500 25.7500 28.9000
v 60.7500 24.0500 1.1000
v 60.7500 25.7500 1.1000
v 60.7500 24.0500 28.9000
o Box6
g Box6
usemtl wire_184228153
vn -1.0000 0.0000 0.0000
vn -1.0000 0.0000 0.0000
vn 1.0000 0.0000 0.0000
vn 1.0000 0.0000 0.0000
vn 0.0000 0.0000 1.0000
vn 0.0000 0.0000 1.0000
vn 0.0000 0.0000 -1.0000
vn 0.0000 0.0000 -1.0000
vn 0.0000 -1.0000 0.0000
vn 0.0000 -1.0000 0.0000
vn 0.0000 1.0000 0.0000
vn 0.0000 1.0000 0.0000
f 153//229 154//229 155//229
f 154//230 156//230 155//230
f 157//231 158//231 159//231
f 157//232 160//232 158//232
f 156//233 160//233 157//233
f 155//234 156//234 157//234
f 159//235 158//235 154//235
f 159//236 154//236 153//236
f 156//237 154//237 158//237
f 160//238 156//238 158//238
f 159//239 153//239 155//239
f 159//240 155//240 157//240

#
# object Box9
#
v 20.2500 65.8500 1.1000
v 20.2500 25.7500 1.1000
v 20.2500 65.8500 28.9000
v 20.2500 25.7500 28.9000
v 21.9500 65.8500 28.9000
v 21.9500 25.7500 1.1000
v 21.9500 65.8500 1.1000
v 21.9500 25.7500 28.9000
o Box9
g Box9
usemtl wire_184228153
vn -1.0000 0.0000 0.0000
vn -1.0000 0.0000 0.0000
vn 1.0000 0.0000 0.0000
vn 1.0000 0.0000 0.0000
vn 0.0000 0.0000 1.0000
vn 0.0000 0.0000 1.0000
vn 0.0000 0.0000 -1.0000
vn 0.0000 0.0000 -1.0000
vn 0.0000 -1.0000 0.0000
vn 0.0000 -1.0000 0.0000
vn 0.0000 1.0000 0.0000
vn 0.0000 1.0000 0.0000
f 161//241 162//241 163//241
f 162//242 164//242 163//242
f 165//243 166//243 167//243
f 165//244 168//244 166//244
f 164//245 168//245 165//245
f 163//246 164//246 165//246
f 167//247 166//247 162//247
f 167//248 162//248 161//248
f 164//249 162//249 166//249
f 168//250 164//250 166//250
f 167//251 161//251 163//251
f 167//252 163//252 165//252

#
# object Box8
#
v -20.2500 65.8500 1.1000
v -20.2500 25.7500 1.1000
v -20.2500 65.8500 28.9000
v -20.2500 25.7500 28.9000
v -18.5500 65.8500 28.9000
v -18.5500 25.7500 1.1000
v -18.5500 65.8500 1.1000
v -18.5500 25.7500 28.9000
o Box8
g Box8
usemtl wire_184228153
vn -1.0000 0.0000 0.0000
vn -1.0000 0.0000 0.0000
vn 1.0000 0.0000 0.0000
vn 1.0000 0.0000 0.0000
vn 0.0000 0.0000 1.0000
vn 0.0000 0.0000 1.0000
vn 0.0000 0.0000 -1.0000
vn 0.0000 0.0000 -1.0000
vn 0.0000 -1.0000 0.0000
vn 0.0000 -1.0000 0.0000
vn 0.0000 1.0000 0.0000
vn 0.0000 1.0000 0.0000
f 169//253 170//253 171//253
f 170//254 172//254 171//254
f 173//255 174//255 175//255
f 173//256 176//256 174//256
f 172//257 176//257 173//257
f 171//258 172//258 173//258
f 175//259 174//259 170//259
f 175//260 170//260 169//260
f 172//261 170//261 174//261
f 176//262 172//262 174//262
f 175//263 169//263 171//263
f 175//264 171//264 173//264

#
# object Box20
#
v -133.2500 34.0500 1.1000
v -133.2500 32.3500 1.1000
v -133.2500 34.0500 28.9000
v -133.2500 32.3500 28.9000
v -60.7500 34.0500 28.9000
v -60.7500 32.3500 1.1000
v -60.7500 34.0500 1.1000
v -60.7500 32.3500 28.9000
o Box20
g Box20
usemtl wire_184228153
vn -1.0000 0.0000 0.0000
vn -1.0000 0.0000 0.0000
vn 1.0000 0.0000 0.0000
vn 1.0000 0.0000 0.0000
vn 0.0000 0.0000 1.0000
vn 0.0000 0.0000 1.0000
vn 0.0000 0.0000 -1.0000
vn 0.0000 0.0000 -1.0000
vn 0.0000 -1.0000 0.0000
vn 0.0000 -1.0000 0.0000
vn 0.0000 1.0000 0.0000
vn 0.0000 1.0000 0.0000
f 177//265 178//265 179//265
f 178//266 180//266 179//266
f 181//267 182//267 183//267
f 181//268 184//268 182//268
f 180//269 184//269 181//269
f 179//270 180//270 181//270
f 183//271 182//271 178//271
f 183//272 178//272 177//272
f 180//273 178//273 182//273
f 184//274 180//274 182//274
f 183//275 177//275 179//275
f 183//276 179//276 181//276

#
# object Box23
#
v 62.4500 34.0500 1.1000
v 62.4500 32.3500 1.1000
v 62.4500 34.0500 28.9000
v 62.4500 32.3500 28.9000
v 134.9500 34.0500 28.9000
v 134.9500 32.3500 1.1000
v 134.9500 34.0500 1.1000
v 134.9500 32.3500 28.9000
o Box23
g Box23
usemtl wire_184228153
vn -1.0000 0.0000 0.0000
vn -1.0000 0.0000 0.0000
vn 1.0000 0.0000 0.0000
vn 1.0000 0.0000 0.0000
vn 0.0000 0.0000 1.0000
vn 0.0000 0.0000 1.0000
vn 0.0000 0.0000 -1.0000
vn 0.0000 0.0000 -1.0000
vn 0.0000 -1.0000 0.0000
vn 0.0000 -1.0000 0.0000
vn 0.0000 1.0000 0.0000
vn 0.0000 1.0000 0.0000
f 185//277 186//277 187//277
f 186//278 188//278 187//278
f 189//279 190//279 191//279
f 189//280 192//280 190//280
f 188//281 192//281 189//281
f 187//282 188//282 189//282
f 191//283 190//283 186//283
f 191//284 186//284 185//284
f 188//285 186//285 190//285
f 192//286 188//286 190//286
f 191//287 185//287 187//287
f 191//288 187//288 189//288

#
# object Box24
#
v 97.8500 65.8500 1.1000
v 97.8500 34.0500 1.1000
v 97.8500 65.8500 28.9000
v 97.8500 34.0500 28.9000
v 99.5500 65.8500 28.9000
v 99.5500 34.0500 1.1000
v 99.5500 65.8500 1.1000
v 99.5500 34.0500 28.9000
o Box24
g Box24
usemtl wire_184228153
vn -1.0000 0.0000 0.0000
vn -1.0000 0.0000 0.0000
vn 1.0000 0.0000 0.0000
vn 1.0000 0.0000 0.0000
vn 0.0000 0.0000 1.0000
vn 0.0000 0.0000 1.0000
vn 0.0000 0.0000 -1.0000
vn 0.0000 0.0000 -1.0000
vn 0.0000 -1.0000 0.0000
vn 0.0000 -1.0000 0.0000
vn 0.0000 1.0000 0.0000
vn 0.0000 1.0000 0.0000
f 193//289 194//289 195//289
f 194//290 196//290 195//290
f 197//291 198//291 199//291
f 197//292 200//292 198//292
f 196//293 200//293 197//293
f 195//294 196//294 197//294
f 199//295 198//295 194//295
f 199//296 194//296 193//296
f 196//297 194//297 198//297
f 200//298 196//298 198//298
f 199//299 193//299 195//299
f 199//300 195//300 197//300

#
# object Box26
#
v -97.8500 65.8500 1.1000
v -97.8500 34.0500 1.1000
v -97.8500 65.8500 28.9000
v -97.8500 34.0500 28.9000
v -96.1500 65.8500 28.9000
v -96.1500 34.0500 1.1000
v -96.1500 65.8500 1.1000
v -96.1500 34.0500 28.9000
o Box26
g Box26
usemtl wire_184228153
vn -1.0000 0.0000 0.0000
vn -1.0000 0.0000 0.0000
vn 1.0000 0.0000 0.0000
vn 1.0000 0.0000 0.0000
vn 0.0000 0.0000 1.0000
vn 0.0000 0.0000 1.0000
vn 0.0000 0.0000 -1.0000
vn 0.0000 0.0000 -1.0000
vn 0.0000 -1.0000 0.0000
vn 0.0000 -1.0000 0.0000
vn 0.0000 1.0000 0.0000
vn 0.0000 1.0000 0.0000
f 201//301 202//301 203//301
f 202//302 204//302 203//302
f 205//303 206//303 207//303
f 205//304 208//304 206//304
f 204//305 208//305 205//305
f 203//306 204//306 205//306
f 207//307 206//307 202//307
f 207//308 202//308 201//308
f 204//309 202//309 206//309
f 208//310 204//310 206//310
f 207//311 201//311 203//311
f 207//312 203//312 205//312

#
# object Box3
#
v -133.2500 67.5500 -1.1000
v -133.2500 65.8500 -1.1000
v -133.2500 67.5500 28.9000
v -133.2500 65.8500 28.9000
v 134.9500 67.5500 28.9000
v 134.9500 65.8500 -1.1000
v 134.9500 67.5500 -1.1000
v 134.9500 65.8500 28.9000
o Box3
g Box3
usemtl wire_184228153
vn -1.0000 0.0000 0.0000
vn -1.0000 0.0000 0.0000
vn 1.0000 0.0000 0.0000
vn 1.0000 0.0000 0.0000
vn 0.0000 0.0000 1.0000
vn 0.0000 0.0000 1.0000
vn 0.0000 0.0000 -1.0000
vn 0.0000 0.0000 -1.0000
vn 0.0000 -1.0000 0.0000
vn 0.0000 -1.0000 0.0000
vn 0.0000 1.0000 0.0000
vn 0.0000 1.0000 0.0000
f 209//313 210//313 211//313
f 210//314 212//314 211//314
f 213//315 214//315 215//315
f 213//316 216//316 214//316
f 212//317 216//317 213//317
f 211//318 212//318 213//318
f 215//319 214//319 210//319
f 215//320 210//320 209//320
f 212//321 210//321 214//321
f 216//322 212//322 214//322
f 215//323 209//323 211//323
f 215//324 211//324 213//324
