# 当前OBJ文件由成睿软件生成;

#
# object Box415
#
v 83.1500 35.0000 -26.6000
v 83.1500 -25.0000 -26.6000
v 83.1500 35.0000 26.4000
v 83.1500 -25.0000 26.4000
v 84.8500 35.0000 26.4000
v 84.8500 -25.0000 -26.6000
v 84.8500 35.0000 -26.6000
v 84.8500 -25.0000 26.4000
o Box415
g Box415
usemtl wire_184228153
vn -1.0000 0.0000 0.0000
vn -1.0000 0.0000 0.0000
vn 1.0000 0.0000 0.0000
vn 1.0000 0.0000 0.0000
vn 0.0000 0.0000 1.0000
vn 0.0000 0.0000 1.0000
vn 0.0000 0.0000 -1.0000
vn 0.0000 0.0000 -1.0000
vn 0.0000 -1.0000 0.0000
vn 0.0000 -1.0000 0.0000
vn 0.0000 1.0000 0.0000
vn 0.0000 1.0000 0.0000
f 1//1 2//1 3//1
f 2//2 4//2 3//2
f 5//3 6//3 7//3
f 5//4 8//4 6//4
f 4//5 8//5 5//5
f 3//6 4//6 5//6
f 7//7 6//7 2//7
f 7//8 2//8 1//8
f 4//9 2//9 6//9
f 8//10 4//10 6//10
f 7//11 1//11 3//11
f 7//12 3//12 5//12

#
# object Box414
#
v -83.1500 35.0000 -26.6000
v -83.1500 -25.0000 -26.6000
v -83.1500 35.0000 26.4000
v -83.1500 -25.0000 26.4000
v -81.4500 35.0000 26.4000
v -81.4500 -25.0000 -26.6000
v -81.4500 35.0000 -26.6000
v -81.4500 -25.0000 26.4000
o Box414
g Box414
usemtl wire_184228153
vn -1.0000 0.0000 0.0000
vn -1.0000 0.0000 0.0000
vn 1.0000 0.0000 0.0000
vn 1.0000 0.0000 0.0000
vn 0.0000 0.0000 1.0000
vn 0.0000 0.0000 1.0000
vn 0.0000 0.0000 -1.0000
vn 0.0000 0.0000 -1.0000
vn 0.0000 -1.0000 0.0000
vn 0.0000 -1.0000 0.0000
vn 0.0000 1.0000 0.0000
vn 0.0000 1.0000 0.0000
f 9//13 10//13 11//13
f 10//14 12//14 11//14
f 13//15 14//15 15//15
f 13//16 16//16 14//16
f 12//17 16//17 13//17
f 11//18 12//18 13//18
f 15//19 14//19 10//19
f 15//20 10//20 9//20
f 12//21 10//21 14//21
f 16//22 12//22 14//22
f 15//23 9//23 11//23
f 15//24 11//24 13//24

#
# object Box416
#
v -81.4500 -23.3000 -26.6000
v -81.4500 -25.0000 -26.6000
v -81.4500 -23.3000 26.4000
v -81.4500 -25.0000 26.4000
v 83.1500 -23.3000 26.4000
v 83.1500 -25.0000 -26.6000
v 83.1500 -23.3000 -26.6000
v 83.1500 -25.0000 26.4000
o Box416
g Box416
usemtl wire_184228153
vn -1.0000 0.0000 0.0000
vn -1.0000 0.0000 0.0000
vn 1.0000 0.0000 0.0000
vn 1.0000 0.0000 0.0000
vn 0.0000 0.0000 1.0000
vn 0.0000 0.0000 1.0000
vn 0.0000 0.0000 -1.0000
vn 0.0000 0.0000 -1.0000
vn 0.0000 -1.0000 0.0000
vn 0.0000 -1.0000 0.0000
vn 0.0000 1.0000 0.0000
vn 0.0000 1.0000 0.0000
f 17//25 18//25 19//25
f 18//26 20//26 19//26
f 21//27 22//27 23//27
f 21//28 24//28 22//28
f 20//29 24//29 21//29
f 19//30 20//30 21//30
f 23//31 22//31 18//31
f 23//32 18//32 17//32
f 20//33 18//33 22//33
f 24//34 20//34 22//34
f 23//35 17//35 19//35
f 23//36 19//36 21//36

#
# object Box425
#
v -45.6667 26.5500 26.6000
v -45.6667 -24.8500 26.6000
v -45.6667 26.5500 28.3000
v -45.6667 -24.8500 28.3000
v -8.9817 26.5500 28.3000
v -8.9817 -24.8500 26.6000
v -8.9817 26.5500 26.6000
v -8.9817 -24.8500 28.3000
o Box425
g Box425
usemtl wire_184228153
vn -1.0000 0.0000 0.0000
vn -1.0000 0.0000 0.0000
vn 1.0000 0.0000 0.0000
vn 1.0000 0.0000 0.0000
vn 0.0000 0.0000 1.0000
vn 0.0000 0.0000 1.0000
vn 0.0000 0.0000 -1.0000
vn 0.0000 0.0000 -1.0000
vn 0.0000 -1.0000 0.0000
vn 0.0000 -1.0000 0.0000
vn 0.0000 1.0000 0.0000
vn 0.0000 1.0000 0.0000
f 25//37 26//37 27//37
f 26//38 28//38 27//38
f 29//39 30//39 31//39
f 29//40 32//40 30//40
f 28//41 32//41 29//41
f 27//42 28//42 29//42
f 31//43 30//43 26//43
f 31//44 26//44 25//44
f 28//45 26//45 30//45
f 32//46 28//46 30//46
f 31//47 25//47 27//47
f 31//48 27//48 29//48

#
# object Box426
#
v -8.6817 26.5500 26.6000
v -8.6817 -24.8500 26.6000
v -8.6817 26.5500 28.3000
v -8.6817 -24.8500 28.3000
v 28.0033 26.5500 28.3000
v 28.0033 -24.8500 26.6000
v 28.0033 26.5500 26.6000
v 28.0033 -24.8500 28.3000
o Box426
g Box426
usemtl wire_184228153
vn -1.0000 0.0000 0.0000
vn -1.0000 0.0000 0.0000
vn 1.0000 0.0000 0.0000
vn 1.0000 0.0000 0.0000
vn 0.0000 0.0000 1.0000
vn 0.0000 0.0000 1.0000
vn 0.0000 0.0000 -1.0000
vn 0.0000 0.0000 -1.0000
vn 0.0000 -1.0000 0.0000
vn 0.0000 -1.0000 0.0000
vn 0.0000 1.0000 0.0000
vn 0.0000 1.0000 0.0000
f 33//49 34//49 35//49
f 34//50 36//50 35//50
f 37//51 38//51 39//51
f 37//52 40//52 38//52
f 36//53 40//53 37//53
f 35//54 36//54 37//54
f 39//55 38//55 34//55
f 39//56 34//56 33//56
f 36//57 34//57 38//57
f 40//58 36//58 38//58
f 39//59 33//59 35//59
f 39//60 35//60 37//60

#
# object Box424
#
v -82.9500 26.5000 26.6000
v -82.9500 -24.8000 26.6000
v -82.9500 26.5000 28.3000
v -82.9500 -24.8000 28.3000
v -45.9200 26.5000 28.3000
v -45.9200 -24.8000 26.6000
v -45.9200 26.5000 26.6000
v -45.9200 -24.8000 28.3000
o Box424
g Box424
usemtl wire_184228153
vn -1.0000 0.0000 0.0000
vn -1.0000 0.0000 0.0000
vn 1.0000 0.0000 0.0000
vn 1.0000 0.0000 0.0000
vn 0.0000 0.0000 1.0000
vn 0.0000 0.0000 1.0000
vn 0.0000 0.0000 -1.0000
vn 0.0000 0.0000 -1.0000
vn 0.0000 -1.0000 0.0000
vn 0.0000 -1.0000 0.0000
vn 0.0000 1.0000 0.0000
vn 0.0000 1.0000 0.0000
f 41//61 42//61 43//61
f 42//62 44//62 43//62
f 45//63 46//63 47//63
f 45//64 48//64 46//64
f 44//65 48//65 45//65
f 43//66 44//66 45//66
f 47//67 46//67 42//67
f 47//68 42//68 41//68
f 44//69 42//69 46//69
f 48//70 44//70 46//70
f 47//71 41//71 43//71
f 47//72 43//72 45//72

#
# object Box423
#
v -44.9167 25.0000 -26.6000
v -44.9167 -23.3000 -26.6000
v -46.6167 -23.3000 -26.6000
v -46.6167 25.0000 -26.6000
v -44.9167 25.0000 -24.9000
v -46.6167 25.0000 -24.9000
v -44.9167 35.0000 -24.9000
v -46.6167 35.0000 -24.9000
v -44.9167 35.0000 24.7000
v -46.6167 35.0000 24.7000
v -44.9167 25.0000 24.7000
v -46.6167 25.0000 24.7000
v -44.9167 25.0000 26.4000
v -46.6167 25.0000 26.4000
v -44.9167 -23.3000 26.4000
v -46.6167 -23.3000 26.4000
o Box423
g Box423
usemtl wire_184228153
vn 0.0000 0.0000 -1.0000
vn 0.0000 0.0000 -1.0000
vn 0.0000 1.0000 0.0000
vn 0.0000 1.0000 0.0000
vn 0.0000 0.0000 -1.0000
vn 0.0000 0.0000 -1.0000
vn 0.0000 1.0000 0.0000
vn 0.0000 1.0000 0.0000
vn 0.0000 0.0000 1.0000
vn 0.0000 0.0000 1.0000
vn 0.0000 1.0000 0.0000
vn 0.0000 1.0000 0.0000
vn 0.0000 0.0000 1.0000
vn 0.0000 0.0000 1.0000
vn 0.0000 -1.0000 0.0000
vn 0.0000 -1.0000 0.0000
vn 1.0000 0.0000 0.0000
vn 1.0000 0.0000 0.0000
vn 1.0000 0.0000 0.0000
vn 1.0000 0.0000 0.0000
vn 1.0000 0.0000 0.0000
vn 1.0000 0.0000 0.0000
vn -1.0000 0.0000 0.0000
vn -1.0000 0.0000 0.0000
vn -1.0000 0.0000 0.0000
vn -1.0000 0.0000 0.0000
vn -1.0000 0.0000 0.0000
vn -1.0000 0.0000 0.0000
f 49//73 50//73 51//73
f 49//74 51//74 52//74
f 53//75 49//75 52//75
f 53//76 52//76 54//76
f 55//77 53//77 54//77
f 55//78 54//78 56//78
f 57//79 55//79 56//79
f 57//80 56//80 58//80
f 59//81 57//81 58//81
f 59//82 58//82 60//82
f 61//83 59//83 60//83
f 61//84 60//84 62//84
f 63//85 61//85 62//85
f 63//86 62//86 64//86
f 50//87 63//87 64//87
f 50//88 64//88 51//88
f 63//89 59//89 61//89
f 53//90 55//90 57//90
f 53//91 57//91 59//91
f 50//92 49//92 53//92
f 50//93 53//93 59//93
f 50//94 59//94 63//94
f 62//95 60//95 64//95
f 58//96 56//96 54//96
f 60//97 58//97 54//97
f 54//98 52//98 51//98
f 60//99 54//99 51//99
f 64//100 60//100 51//100

#
# object Box417
#
v 26.4500 35.0000 16.4000
v 26.4500 -23.3000 16.4000
v 26.4500 35.0000 26.4000
v 26.4500 -23.3000 26.4000
v 28.1500 35.0000 26.4000
v 28.1500 -23.3000 16.4000
v 28.1500 35.0000 16.4000
v 28.1500 -23.3000 26.4000
o Box417
g Box417
usemtl wire_184228153
vn -1.0000 0.0000 0.0000
vn -1.0000 0.0000 0.0000
vn 1.0000 0.0000 0.0000
vn 1.0000 0.0000 0.0000
vn 0.0000 0.0000 1.0000
vn 0.0000 0.0000 1.0000
vn 0.0000 0.0000 -1.0000
vn 0.0000 0.0000 -1.0000
vn 0.0000 -1.0000 0.0000
vn 0.0000 -1.0000 0.0000
vn 0.0000 1.0000 0.0000
vn 0.0000 1.0000 0.0000
f 65//101 66//101 67//101
f 66//102 68//102 67//102
f 69//103 70//103 71//103
f 69//104 72//104 70//104
f 68//105 72//105 69//105
f 67//106 68//106 69//106
f 71//107 70//107 66//107
f 71//108 66//108 65//108
f 68//109 66//109 70//109
f 72//110 68//110 70//110
f 71//111 65//111 67//111
f 71//112 67//112 69//112

#
# object Box420
#
v 28.1500 35.0000 24.7000
v 28.1500 -23.3000 24.7000
v 28.1500 35.0000 26.4000
v 28.1500 -23.3000 26.4000
v 48.1500 35.0000 26.4000
v 48.1500 -23.3000 24.7000
v 48.1500 35.0000 24.7000
v 48.1500 -23.3000 26.4000
o Box420
g Box420
usemtl wire_184228153
vn -1.0000 0.0000 0.0000
vn -1.0000 0.0000 0.0000
vn 1.0000 0.0000 0.0000
vn 1.0000 0.0000 0.0000
vn 0.0000 0.0000 1.0000
vn 0.0000 0.0000 1.0000
vn 0.0000 0.0000 -1.0000
vn 0.0000 0.0000 -1.0000
vn 0.0000 -1.0000 0.0000
vn 0.0000 -1.0000 0.0000
vn 0.0000 1.0000 0.0000
vn 0.0000 1.0000 0.0000
f 73//113 74//113 75//113
f 74//114 76//114 75//114
f 77//115 78//115 79//115
f 77//116 80//116 78//116
f 76//117 80//117 77//117
f 75//118 76//118 77//118
f 79//119 78//119 74//119
f 79//120 74//120 73//120
f 76//121 74//121 78//121
f 80//122 76//122 78//122
f 79//123 73//123 75//123
f 79//124 75//124 77//124

#
# object Box418
#
v -81.4500 35.0000 -26.6000
v -81.4500 25.0000 -26.6000
v -81.4500 35.0000 -24.9000
v -81.4500 25.0000 -24.9000
v 83.1500 35.0000 -24.9000
v 83.1500 25.0000 -26.6000
v 83.1500 35.0000 -26.6000
v 83.1500 25.0000 -24.9000
o Box418
g Box418
usemtl wire_184228153
vn -1.0000 0.0000 0.0000
vn -1.0000 0.0000 0.0000
vn 1.0000 0.0000 0.0000
vn 1.0000 0.0000 0.0000
vn 0.0000 0.0000 1.0000
vn 0.0000 0.0000 1.0000
vn 0.0000 0.0000 -1.0000
vn 0.0000 0.0000 -1.0000
vn 0.0000 -1.0000 0.0000
vn 0.0000 -1.0000 0.0000
vn 0.0000 1.0000 0.0000
vn 0.0000 1.0000 0.0000
f 81//125 82//125 83//125
f 82//126 84//126 83//126
f 85//127 86//127 87//127
f 85//128 88//128 86//128
f 84//129 88//129 85//129
f 83//130 84//130 85//130
f 87//131 86//131 82//131
f 87//132 82//132 81//132
f 84//133 82//133 86//133
f 88//134 84//134 86//134
f 87//135 81//135 83//135
f 87//136 83//136 85//136

#
# object Box419
#
v -81.4500 35.0000 24.7000
v -81.4500 25.0000 24.7000
v -81.4500 35.0000 26.4000
v -81.4500 25.0000 26.4000
v 26.4500 35.0000 26.4000
v 26.4500 25.0000 24.7000
v 26.4500 35.0000 24.7000
v 26.4500 25.0000 26.4000
o Box419
g Box419
usemtl wire_184228153
vn -1.0000 0.0000 0.0000
vn -1.0000 0.0000 0.0000
vn 1.0000 0.0000 0.0000
vn 1.0000 0.0000 0.0000
vn 0.0000 0.0000 1.0000
vn 0.0000 0.0000 1.0000
vn 0.0000 0.0000 -1.0000
vn 0.0000 0.0000 -1.0000
vn 0.0000 -1.0000 0.0000
vn 0.0000 -1.0000 0.0000
vn 0.0000 1.0000 0.0000
vn 0.0000 1.0000 0.0000
f 89//137 90//137 91//137
f 90//138 92//138 91//138
f 93//139 94//139 95//139
f 93//140 96//140 94//140
f 92//141 96//141 93//141
f 91//142 92//142 93//142
f 95//143 94//143 90//143
f 95//144 90//144 89//144
f 92//145 90//145 94//145
f 96//146 92//146 94//146
f 95//147 89//147 91//147
f 95//148 91//148 93//148
